<svg id="Layer_1" data-name="Layer 1" xmlns="http://www.w3.org/2000/svg" viewBox="0 0 342.7 120.22"><defs><style>.cls-1{fill:#fff;}.cls-2{fill:#132144;}.cls-3{fill:#fece00;}.cls-4{fill:#eff1f3;}</style></defs><rect class="cls-1" width="342.7" height="120.22" rx="17.82"/><path class="cls-2" d="M12.87,8.52H88.1a2,2,0,0,1,2,2V67.46a39.65,39.65,0,0,1-39.65,39.65h0A39.65,39.65,0,0,1,10.83,67.46V10.55a2,2,0,0,1,2-2Z"/><path class="cls-3" d="M44.21,8.52H56.76a0,0,0,0,1,0,0v0a1.67,1.67,0,0,1-1.67,1.67H45.88a1.67,1.67,0,0,1-1.67-1.67v0a0,0,0,0,1,0,0Z" transform="translate(100.97 18.7) rotate(180)"/><rect class="cls-4" x="38.05" y="15.91" width="24.86" height="6.68" rx="3.34"/><path class="cls-3" d="M75.54,60.59A25.06,25.06,0,1,1,36.27,40a7.9,7.9,0,0,0,1.78-4.85c0-2,0-3.76,0-6.29a3.29,3.29,0,0,1,3.29-3.29H59.63a3,3,0,0,1,2.46.67,3.61,3.61,0,0,1,.82,2.56c.18,3.53-.13,4.88,0,6.35a9.44,9.44,0,0,0,2.36,5.26A25.1,25.1,0,0,1,75.54,60.59Z"/><path class="cls-4" d="M44,20.34H56.93a6,6,0,0,1,6,6v1.83a0,0,0,0,1,0,0H38.05a0,0,0,0,1,0,0V26.33A6,6,0,0,1,44,20.34Z"/><path class="cls-4" d="M42.55,10.15H58.42a4.5,4.5,0,0,1,4.5,4.5v0a2.18,2.18,0,0,1-2.18,2.18H40.23a2.18,2.18,0,0,1-2.18-2.18v0A4.5,4.5,0,0,1,42.55,10.15Z"/><path class="cls-2" d="M101.83,9h8.4V34.89c0,5.76,3.12,8.76,8.46,8.76s8.52-3,8.52-8.76V9h8.46V34.83c0,11-7.92,16.43-17.1,16.43s-16.74-5.4-16.74-16.43Z"/><path class="cls-2" d="M163.15,17.07c8.52,0,15.18,6.66,15.18,17s-6.66,17.27-15.18,17.27a13.09,13.09,0,0,1-11-5.28v4.74h-8.4V6.45h8.4v16A13,13,0,0,1,163.15,17.07Zm-2.22,7.38c-4.5,0-8.76,3.48-8.76,9.78S156.43,44,160.93,44s8.82-3.59,8.82-9.89S165.49,24.45,160.93,24.45Z"/><path class="cls-2" d="M215.83,50.84h-8.46V46.65a12.28,12.28,0,0,1-9.9,4.61c-7.74,0-13.32-5-13.32-14.15V17.61h8.4v18.3c0,5.34,2.94,8.21,7.38,8.21s7.44-2.87,7.44-8.21V17.61h8.46Z"/><path class="cls-2" d="M247.39,32.49c0-5.34-2.94-8.22-7.38-8.22s-7.5,2.88-7.5,8.22V50.84h-8.4V17.61h8.4v4.14a12.42,12.42,0,0,1,10-4.62c7.74,0,13.26,5,13.26,14.22V50.84h-8.4Z"/><path class="cls-2" d="M262.87,8.73A5.17,5.17,0,1,1,268,13.65,4.93,4.93,0,0,1,262.87,8.73Zm.9,8.88h8.4V50.84h-8.4Z"/><path class="cls-2" d="M281.35,24.51h-3.78v-6.9h3.78V15.93c0-8.16,4.62-11.94,14-11.7v7.08c-4.08-.12-5.46,1.2-5.46,4.92v1.38h5.82v6.9h-5.82V50.84h-8.52Z"/><path class="cls-2" d="M332.53,50.84h-8.46V46.65a12.28,12.28,0,0,1-9.9,4.61c-7.74,0-13.32-5-13.32-14.15V17.61h8.4v18.3c0,5.34,2.94,8.21,7.38,8.21s7.44-2.87,7.44-8.21V17.61h8.46Z"/><path class="cls-2" d="M117.37,81.57h-7V97.64H102V55.77h15.42c10.08,0,15.12,5.7,15.12,13C132.49,75.09,128.17,81.57,117.37,81.57ZM117,74.79c4.74,0,6.84-2.34,6.84-6.06s-2.1-6.12-6.84-6.12h-6.66V74.79Z"/><path class="cls-2" d="M153.19,98.19c-9.6,0-16.86-6.72-16.86-17.16s7.5-17.16,17.1-17.16,17.1,6.66,17.1,17.16S162.85,98.19,153.19,98.19Zm0-7.32c4.44,0,8.7-3.24,8.7-9.84s-4.14-9.84-8.58-9.84-8.46,3.18-8.46,9.84S148.69,90.87,153.19,90.87Z"/><path class="cls-2" d="M185.11,97.64h-8.4V64.41h8.4v5.16a11.53,11.53,0,0,1,10.2-5.64v8.82h-2.22c-5,0-8,1.92-8,8.34Z"/><path class="cls-2" d="M202.27,71.31h-4v-6.9h4V56.19h8.46v8.22h7.44v6.9h-7.44V87.39c0,2.21.9,3.17,3.54,3.17h3.9v7.08h-5.28c-6.36,0-10.62-2.7-10.62-10.31Z"/><path class="cls-2" d="M237.25,63.87a13.14,13.14,0,0,1,11,5.28V64.41h8.46V97.64h-8.46V92.79a13.11,13.11,0,0,1-11,5.4c-8.4,0-15.12-6.9-15.12-17.28S228.79,63.87,237.25,63.87Zm2.16,7.38c-4.5,0-8.76,3.36-8.76,9.66s4.26,9.9,8.76,9.9,8.82-3.48,8.82-9.78S244,71.25,239.41,71.25Z"/><path class="cls-2" d="M264.91,53.25h8.4V97.64h-8.4Z"/><rect class="cls-2" x="263.65" y="17.44" width="9.7" height="80.5"/><circle class="cls-3" cx="285.79" cy="92.03" r="5.52"/><circle class="cls-3" cx="268.55" cy="8.52" r="5.76"/></svg>